<?xml version="1.0" standalone="no"?>
<!DOCTYPE svg PUBLIC "-//W3C//DTD SVG 20010904//EN"
 "http://www.w3.org/TR/2001/REC-SVG-20010904/DTD/svg10.dtd">
<svg version="1.0" xmlns="http://www.w3.org/2000/svg"
 width="556.000000pt" height="102.000000pt" viewBox="0 0 556.000000 102.000000"
 preserveAspectRatio="xMidYMid meet">

<g transform="translate(0.000000,102.000000) scale(0.100000,-0.100000)"
fill="#000" stroke="none">
<path d="M270 536 l0 -256 50 0 50 0 0 89 0 88 65 6 c126 12 180 63 180 169 0
65 -20 100 -76 133 -28 16 -56 21 -151 24 l-118 3 0 -256z m218 148 c16 -11
22 -25 22 -54 0 -51 -35 -80 -96 -80 l-44 0 0 75 0 75 48 0 c27 0 57 -7 70
-16z"/>
<path d="M720 535 l0 -255 145 0 145 0 0 45 0 45 -95 0 -95 0 0 65 0 65 90 0
90 0 0 45 0 45 -90 0 -90 0 0 55 0 55 95 0 95 0 0 45 0 45 -145 0 -145 0 0
-255z"/>
<path d="M1120 535 l0 -255 45 0 45 0 1 203 1 202 28 -85 c16 -47 45 -138 65
-202 l36 -118 47 0 47 0 63 195 c35 107 66 195 70 195 4 0 6 -88 4 -195 l-4
-195 46 0 46 0 0 255 0 255 -68 0 -68 0 -64 -195 c-35 -107 -67 -195 -70 -195
-3 0 -32 88 -65 195 l-60 195 -72 0 -73 0 0 -255z"/>
<path d="M1800 535 l0 -255 50 0 50 0 0 100 0 100 90 0 90 0 0 45 0 45 -90 0
-90 0 0 65 0 65 95 0 95 0 0 45 0 45 -145 0 -145 0 0 -255z"/>
</g>
</svg>
